M48
; DRILL file {KiCad 5.1.5+dfsg1-2build2} date Mo 20 Jul 2020 19:08:32 CEST
; FORMAT={-:-/ absolute / metric / decimal}
; #@! TF.CreationDate,2020-07-20T19:08:32+02:00
; #@! TF.GenerationSoftware,Kicad,Pcbnew,5.1.5+dfsg1-2build2
FMAT,2
METRIC
T1C0.800
T2C1.000
T3C3.200
%
G90
G05
T1
X58.42Y-88.9
X66.04Y-88.9
X90.17Y-59.69
X90.17Y-62.23
X90.17Y-64.77
X90.17Y-67.31
X90.17Y-69.85
X90.17Y-72.39
X100.33Y-59.69
X100.33Y-62.23
X100.33Y-64.77
X100.33Y-67.31
X100.33Y-69.85
X100.33Y-72.39
X106.68Y-57.15
X106.68Y-59.69
X106.68Y-62.23
X106.68Y-64.77
X106.68Y-67.31
X106.68Y-69.85
X106.68Y-72.39
X106.68Y-74.93
X106.68Y-77.47
X106.68Y-80.01
X106.68Y-82.55
X106.68Y-85.09
X106.68Y-87.63
X106.68Y-90.17
X106.68Y-92.71
X121.92Y-57.15
X121.92Y-59.69
X121.92Y-62.23
X121.92Y-64.77
X121.92Y-67.31
X121.92Y-69.85
X121.92Y-72.39
X121.92Y-74.93
X121.92Y-77.47
X121.92Y-80.01
X121.92Y-82.55
X121.92Y-85.09
X121.92Y-87.63
X121.92Y-90.17
X121.92Y-92.71
X58.42Y-93.98
X58.42Y-96.52
X66.04Y-93.98
X66.04Y-96.52
T2
X60.96Y-59.69
X60.96Y-62.23
X60.96Y-64.77
X60.96Y-67.31
X60.96Y-69.85
X60.96Y-72.39
X60.96Y-74.93
X60.96Y-77.47
X83.82Y-59.69
X83.82Y-62.23
X83.82Y-64.77
X83.82Y-67.31
X83.82Y-69.85
X83.82Y-72.39
X83.82Y-74.93
X83.82Y-77.47
X88.9Y-77.47
X88.9Y-80.01
X95.25Y-83.82
X95.25Y-86.36
X95.25Y-88.9
X95.25Y-91.44
X95.25Y-93.98
X95.25Y-96.52
X127.0Y-62.23
X127.0Y-64.77
T3
X129.54Y-85.725
X53.34Y-53.34
X129.54Y-53.34
X53.34Y-85.725
T0
M30
